<svg xmlns="http://www.w3.org/2000/svg" viewBox="0 0 1679 311" width="1679" height="311" preserveAspectRatio="xMidYMid meet" style="width: 100%; height: 100%; transform: translate3d(0px, 0px, 0px);"><defs><clipPath id="__lottie_element_3"><rect width="1679" height="311" x="0" y="0"></rect></clipPath><mask id="__lottie_element_10" mask-type="alpha"><g transform="matrix(1,0,0,1,1014.3280029296875,155.5)" opacity="1" style="display: block;"><g opacity="1" transform="matrix(1,0,0,1,30.172000885009766,-3.296999931335449)"><path fill="rgb(0,45,94)" fill-opacity="1" d=" M659.1719970703125,-180.7030029296875 C659.1719970703125,-180.7030029296875 659.1719970703125,180.7030029296875 659.1719970703125,180.7030029296875 C659.1719970703125,180.7030029296875 -659.1719970703125,180.7030029296875 -659.1719970703125,180.7030029296875 C-659.1719970703125,180.7030029296875 -659.1719970703125,-180.7030029296875 -659.1719970703125,-180.7030029296875 C-659.1719970703125,-180.7030029296875 659.1719970703125,-180.7030029296875 659.1719970703125,-180.7030029296875z"></path></g></g></mask></defs><g clip-path="url(#__lottie_element_3)"><g mask="url(#__lottie_element_10)" style="display: block;"><g transform="matrix(1,0,0,1,-485.5001220703125,-564.5)" opacity="1"><g opacity="1" transform="matrix(1,0,0,1,951.0499877929688,720)"><path fill="rgb(0,44,93)" fill-opacity="1" d=" M49.05099868774414,-12.23799991607666 C49.05099868774414,-12.23799991607666 -24.062999725341797,-12.23799991607666 -24.062999725341797,-12.23799991607666 C-24.062999725341797,-12.23799991607666 -24.062999725341797,-60.12300109863281 -24.062999725341797,-60.12300109863281 C-24.062999725341797,-60.12300109863281 55.16600036621094,-60.12300109863281 55.16600036621094,-60.12300109863281 C55.16600036621094,-60.12300109863281 55.16600036621094,-88.41899871826172 55.16600036621094,-88.41899871826172 C55.16600036621094,-88.41899871826172 -55.165000915527344,-88.41899871826172 -55.165000915527344,-88.41899871826172 C-55.165000915527344,-88.41899871826172 -55.165000915527344,88.41899871826172 -55.165000915527344,88.41899871826172 C-55.165000915527344,88.41899871826172 -24.062999725341797,88.41899871826172 -24.062999725341797,88.41899871826172 C-24.062999725341797,88.41899871826172 -24.062999725341797,15.295999526977539 -24.062999725341797,15.295999526977539 C-24.062999725341797,15.295999526977539 49.05099868774414,15.295999526977539 49.05099868774414,15.295999526977539 C49.05099868774414,15.295999526977539 49.05099868774414,-12.23799991607666 49.05099868774414,-12.23799991607666z"></path></g><g opacity="1" transform="matrix(1,0,0,1,1046.18603515625,641.2739868164062)"><path fill="rgb(0,44,93)" fill-opacity="1" d=" M-0.1289999932050705,-18.86400032043457 C-11.609999656677246,-18.86400032043457 -19.628999710083008,-11.15999984741211 -19.628999710083008,-0.12700000405311584 C-19.628999710083008,10.873000144958496 -11.425999641418457,18.86400032043457 -0.1289999932050705,18.86400032043457 C11.326000213623047,18.86400032043457 19.6299991607666,10.873000144958496 19.6299991607666,-0.12700000405311584 C19.6299991607666,-10.982999801635742 11.326000213623047,-18.86400032043457 -0.1289999932050705,-18.86400032043457z"></path></g><g opacity="1" transform="matrix(1,0,0,1,1046.1810302734375,744.9710083007812)"><path fill="rgb(0,44,93)" fill-opacity="1" d=" M-14.784000396728516,63.448001861572266 C-14.784000396728516,63.448001861572266 14.78499984741211,63.448001861572266 14.78499984741211,63.448001861572266 C14.78499984741211,63.448001861572266 14.78499984741211,-63.448001861572266 14.78499984741211,-63.448001861572266 C14.78499984741211,-63.448001861572266 -14.784000396728516,-63.448001861572266 -14.784000396728516,-63.448001861572266 C-14.784000396728516,-63.448001861572266 -14.784000396728516,63.448001861572266 -14.784000396728516,63.448001861572266z"></path></g><g opacity="1" transform="matrix(1,0,0,1,1132.68505859375,743.822998046875)"><path fill="rgb(0,44,93)" fill-opacity="1" d=" M-6.890999794006348,-39.992000579833984 C-6.890999794006348,-39.992000579833984 -9.034000396728516,-35.82099914550781 -9.034000396728516,-35.82099914550781 C-9.034000396728516,-35.82099914550781 -9.034000396728516,-62.29999923706055 -9.034000396728516,-62.29999923706055 C-9.034000396728516,-62.29999923706055 -37.07899856567383,-62.29999923706055 -37.07899856567383,-62.29999923706055 C-37.07899856567383,-62.29999923706055 -37.07899856567383,64.59600067138672 -37.07899856567383,64.59600067138672 C-37.07899856567383,64.59600067138672 -7.510000228881836,64.59600067138672 -7.510000228881836,64.59600067138672 C-7.510000228881836,64.59600067138672 -7.510000228881836,3.062000036239624 -7.510000228881836,3.062000036239624 C-7.510000228881836,-21.31100082397461 7.039999961853027,-37.060001373291016 29.559999465942383,-37.060001373291016 C32.387001037597656,-37.060001373291016 34.816001892089844,-36.83399963378906 37.08000183105469,-36.3489990234375 C37.08000183105469,-36.3489990234375 37.08000183105469,-64.22100067138672 37.08000183105469,-64.22100067138672 C35.35100173950195,-64.4219970703125 32.95000076293945,-64.59500122070312 31.084999084472656,-64.59500122070312 C14.779999732971191,-64.59500122070312 1.2940000295639038,-55.856998443603516 -6.890999794006348,-39.992000579833984z"></path></g><g opacity="1" transform="matrix(1,0,0,1,1234.0989990234375,744.969970703125)"><path fill="rgb(0,44,93)" fill-opacity="1" d=" M13.482000350952148,-12.267000198364258 C13.482000350952148,-12.267000198364258 0.753000020980835,-15.0649995803833 0.753000020980835,-15.0649995803833 C-14.598999977111816,-18.33799934387207 -19.77199935913086,-22.285999298095703 -19.77199935913086,-30.701000213623047 C-19.77199935913086,-38.724998474121094 -11.440999984741211,-44.323001861572266 0.48399999737739563,-44.323001861572266 C13.694000244140625,-44.323001861572266 21,-38.42599868774414 21.702999114990234,-27.25 C21.702999114990234,-27.25 51.9739990234375,-27.25 51.9739990234375,-27.25 C49.516998291015625,-52.38100051879883 31.006000518798828,-66.76000213623047 0.9929999709129333,-66.76000213623047 C-14.461000442504883,-66.76000213623047 -26.570999145507812,-63.25299835205078 -36.020999908447266,-56.03900146484375 C-45.194000244140625,-49.104000091552734 -49.849998474121094,-39.72200012207031 -49.849998474121094,-28.15399932861328 C-49.849998474121094,-8.383000373840332 -38.665000915527344,1.9470000267028809 -9.963000297546387,8.704000473022461 C-9.963000297546387,8.704000473022461 5.315999984741211,12.270999908447266 5.315999984741211,12.270999908447266 C18.78499984741211,15.319999694824219 24.0310001373291,19.774999618530273 24.0310001373291,28.1560001373291 C24.0310001373291,38.279998779296875 15.513999938964844,44.32600021362305 1.2510000467300415,44.32600021362305 C-13.916999816894531,44.32600021362305 -22.59000015258789,37.0989990234375 -23.29199981689453,23.94099998474121 C-23.29199981689453,23.94099998474121 -54.375999450683594,23.94099998474121 -54.375999450683594,23.94099998474121 C-52.888999938964844,51.56700134277344 -32.816001892089844,66.76000213623047 2.259000062942505,66.76000213623047 C34.41400146484375,66.76000213623047 54.375999450683594,50.89099884033203 54.375999450683594,25.350000381469727 C54.375999450683594,4.900000095367432 42.91299819946289,-5.642000198364258 13.482000350952148,-12.267000198364258z"></path></g><g opacity="1" transform="matrix(1,0,0,1,1344.5,723.968994140625)"><path fill="rgb(0,44,93)" fill-opacity="1" d=" M7.139999866485596,40.74700164794922 C7.139999866485596,40.74700164794922 7.139999866485596,-16.187000274658203 7.139999866485596,-16.187000274658203 C7.139999866485596,-16.187000274658203 38.981998443603516,-16.187000274658203 38.981998443603516,-16.187000274658203 C38.981998443603516,-16.187000274658203 38.981998443603516,-42.446998596191406 38.981998443603516,-42.446998596191406 C38.981998443603516,-42.446998596191406 7.139999866485596,-42.446998596191406 7.139999866485596,-42.446998596191406 C7.139999866485596,-42.446998596191406 7.139999866485596,-87.76200103759766 7.139999866485596,-87.76200103759766 C7.139999866485596,-87.76200103759766 -22.43899917602539,-80.90399932861328 -22.43899917602539,-80.90399932861328 C-22.43899917602539,-80.90399932861328 -22.43899917602539,-42.446998596191406 -22.43899917602539,-42.446998596191406 C-22.43899917602539,-42.446998596191406 -43.064998626708984,-42.446998596191406 -43.064998626708984,-42.446998596191406 C-43.064998626708984,-42.446998596191406 -43.064998626708984,-16.187000274658203 -43.064998626708984,-16.187000274658203 C-43.064998626708984,-16.187000274658203 -22.43899917602539,-16.187000274658203 -22.43899917602539,-16.187000274658203 C-22.43899917602539,-16.187000274658203 -22.43899917602539,43.297000885009766 -22.43899917602539,43.297000885009766 C-22.43899917602539,73.21499633789062 -8.88599967956543,87.76100158691406 18.972999572753906,87.76100158691406 C27.85099983215332,87.76100158691406 35.527000427246094,86.11199951171875 43.064998626708984,82.5790023803711 C43.064998626708984,82.5790023803711 43.064998626708984,57.26599884033203 43.064998626708984,57.26599884033203 C37.57699966430664,60.362998962402344 32.28499984741211,61.75600051879883 26.114999771118164,61.75600051879883 C12.812000274658203,61.75600051879883 7.139999866485596,55.47600173950195 7.139999866485596,40.74700164794922z"></path></g><g opacity="1" transform="matrix(1,0,0,1,1548.9510498046875,720.0009765625)"><path fill="rgb(0,44,93)" fill-opacity="1" d=" M-42.11399841308594,44.483001708984375 C-53.30099868774414,32.5099983215332 -58.731998443603516,17.920000076293945 -58.731998443603516,-0.125 C-58.731998443603516,-17.402999877929688 -53.06999969482422,-32.237998962402344 -41.875,-44.215999603271484 C-30.826000213623047,-56.28799819946289 -16.6560001373291,-62.41299819946289 0.23999999463558197,-62.41299819946289 C26.77899932861328,-62.41299819946289 48.597999572753906,-46.71799850463867 57.36399841308594,-21.392000198364258 C57.36399841308594,-21.392000198364258 90.8030014038086,-21.392000198364258 90.8030014038086,-21.392000198364258 C86.11100006103516,-42.16299819946289 75.552001953125,-59.12900161743164 59.42399978637695,-71.84400177001953 C43.2400016784668,-85.04499816894531 23.416000366210938,-91.72899627685547 0.48899999260902405,-91.72899627685547 C-25.819000244140625,-91.72899627685547 -47.91600036621094,-82.84100341796875 -65.197998046875,-65.31500244140625 C-82.56400299072266,-47.70000076293945 -91.36799621582031,-25.766000747680664 -91.36799621582031,-0.125 C-91.36799621582031,25.68199920654297 -82.56400299072266,47.69900131225586 -65.197998046875,65.31500244140625 C-47.92499923706055,82.84300231933594 -25.819000244140625,91.72899627685547 0.48899999260902405,91.72899627685547 C23.78499984741211,91.72899627685547 44.034000396728516,84.70500183105469 60.6619987487793,70.8499984741211 C77.09500122070312,57.3650016784668 87.41300201416016,39.619998931884766 91.36699676513672,18.08300018310547 C91.36699676513672,18.08300018310547 58.69499969482422,18.08300018310547 58.69499969482422,18.08300018310547 C51.42399978637695,44.893001556396484 28.579999923706055,62.159000396728516 0.23999999463558197,62.159000396728516 C-16.64699935913086,62.159000396728516 -30.89900016784668,56.21200180053711 -42.11399841308594,44.483001708984375z"></path></g><g opacity="1" transform="matrix(1,0,0,1,1679.7340087890625,744.9710083007812)"><path fill="rgb(0,44,93)" fill-opacity="1" d=" M-14.788999557495117,63.448001861572266 C-14.788999557495117,63.448001861572266 14.788999557495117,63.448001861572266 14.788999557495117,63.448001861572266 C14.788999557495117,63.448001861572266 14.788999557495117,-63.448001861572266 14.788999557495117,-63.448001861572266 C14.788999557495117,-63.448001861572266 -14.788999557495117,-63.448001861572266 -14.788999557495117,-63.448001861572266 C-14.788999557495117,-63.448001861572266 -14.788999557495117,63.448001861572266 -14.788999557495117,63.448001861572266z"></path></g><g opacity="1" transform="matrix(1,0,0,1,1679.7340087890625,641.2739868164062)"><path fill="rgb(0,44,93)" fill-opacity="1" d=" M-0.11900000274181366,-18.86400032043457 C-11.611000061035156,-18.86400032043457 -19.628999710083008,-11.15999984741211 -19.628999710083008,-0.12700000405311584 C-19.628999710083008,10.873000144958496 -11.427000045776367,18.86400032043457 -0.11900000274181366,18.86400032043457 C11.324999809265137,18.86400032043457 19.628999710083008,10.873000144958496 19.628999710083008,-0.12700000405311584 C19.628999710083008,-10.982999801635742 11.324999809265137,-18.86400032043457 -0.11900000274181366,-18.86400032043457z"></path></g><g opacity="1" transform="matrix(1,0,0,1,1766.22900390625,743.822998046875)"><path fill="rgb(0,44,93)" fill-opacity="1" d=" M-6.876999855041504,-39.992000579833984 C-6.876999855041504,-39.992000579833984 -9.029999732971191,-35.82099914550781 -9.029999732971191,-35.82099914550781 C-9.029999732971191,-35.82099914550781 -9.029999732971191,-62.29999923706055 -9.029999732971191,-62.29999923706055 C-9.029999732971191,-62.29999923706055 -37.08300018310547,-62.29999923706055 -37.08300018310547,-62.29999923706055 C-37.08300018310547,-62.29999923706055 -37.08300018310547,64.59600067138672 -37.08300018310547,64.59600067138672 C-37.08300018310547,64.59600067138672 -7.505000114440918,64.59600067138672 -7.505000114440918,64.59600067138672 C-7.505000114440918,64.59600067138672 -7.505000114440918,3.062000036239624 -7.505000114440918,3.062000036239624 C-7.505000114440918,-21.31100082397461 7.044000148773193,-37.060001373291016 29.555999755859375,-37.060001373291016 C32.38199996948242,-37.060001373291016 34.819000244140625,-36.83399963378906 37.08300018310547,-36.3489990234375 C37.08300018310547,-36.3489990234375 37.08300018310547,-64.22100067138672 37.08300018310547,-64.22100067138672 C35.35599899291992,-64.4219970703125 32.95500183105469,-64.59500122070312 31.089000701904297,-64.59500122070312 C14.78499984741211,-64.59500122070312 1.2990000247955322,-55.856998443603516 -6.876999855041504,-39.992000579833984z"></path></g><g opacity="1" transform="matrix(1,0,0,1,1879.10205078125,744.969970703125)"><path fill="rgb(0,44,93)" fill-opacity="1" d=" M-26.312000274658203,28.179000854492188 C-33.62900161743164,20.60099983215332 -37.34199905395508,11.074999809265137 -37.34199905395508,-0.125 C-37.34199905395508,-11.321000099182129 -33.72999954223633,-20.496000289916992 -26.312000274658203,-28.179000854492188 C-18.9689998626709,-35.7859992980957 -9.871000289916992,-39.483001708984375 1.5089999437332153,-39.483001708984375 C18.229999542236328,-39.483001708984375 31.743999481201172,-29.7450008392334 36.98099899291992,-14.003000259399414 C36.98099899291992,-14.003000259399414 66.64199829101562,-14.003000259399414 66.64199829101562,-14.003000259399414 C63.667999267578125,-29.361000061035156 56.26900100708008,-41.9640007019043 44.611000061035156,-51.47600173950195 C44.611000061035156,-51.47600173950195 44.59299850463867,-51.492000579833984 44.59299850463867,-51.492000579833984 C32.566001892089844,-61.76599884033203 18.479000091552734,-66.76100158691406 1.5089999437332153,-66.76100158691406 C-18.04599952697754,-66.76100158691406 -34.571998596191406,-60.27000045776367 -47.632999420166016,-47.46699905395508 C-60.417999267578125,-34.678001403808594 -66.91100311279297,-18.749000549316406 -66.91100311279297,-0.125 C-66.91100311279297,18.832000732421875 -60.417999267578125,34.93299865722656 -47.625,47.731998443603516 C-34.571998596191406,60.53300094604492 -18.5,66.76000213623047 1.5089999437332153,66.76000213623047 C18.479000091552734,66.76000213623047 32.566001892089844,61.768001556396484 44.59299850463867,51.49100112915039 C56.67499923706055,41.37799835205078 63.981998443603516,28.857999801635742 66.91100311279297,13.239999771118164 C66.91100311279297,13.239999771118164 37.5260009765625,13.239999771118164 37.5260009765625,13.239999771118164 C32.79600143432617,28.738000869750977 18.110000610351562,39.481998443603516 1.5089999437332153,39.481998443603516 C-9.871000289916992,39.481998443603516 -18.9689998626709,35.78499984741211 -26.312000274658203,28.179000854492188z"></path></g><g opacity="1" transform="matrix(1,0,0,1,1985.428955078125,715.1610107421875)"><path fill="rgb(0,44,93)" fill-opacity="1" d=" M-14.788999557495117,93.25800323486328 C-14.788999557495117,93.25800323486328 14.788999557495117,93.25800323486328 14.788999557495117,93.25800323486328 C14.788999557495117,93.25800323486328 14.788999557495117,-93.25800323486328 14.788999557495117,-93.25800323486328 C14.788999557495117,-93.25800323486328 -14.788999557495117,-93.25800323486328 -14.788999557495117,-93.25800323486328 C-14.788999557495117,-93.25800323486328 -14.788999557495117,93.25800323486328 -14.788999557495117,93.25800323486328z"></path></g><g opacity="1" transform="matrix(1,0,0,1,2092.301025390625,744.969970703125)"><path fill="rgb(0,44,93)" fill-opacity="1" d=" M0.7710000276565552,-66.76100158691406 C-18.19300079345703,-66.76100158691406 -34.37699890136719,-60.18600082397461 -47.35599899291992,-47.22100067138672 C-60.13999938964844,-34.42499923706055 -66.63400268554688,-18.58300018310547 -66.63400268554688,-0.12399999797344208 C-66.63400268554688,18.999000549316406 -60.233001708984375,35.097999572753906 -47.59600067138672,47.731998443603516 C-34.792999267578125,60.540000915527344 -19.13599967956543,66.76100158691406 0.2630000114440918,66.76100158691406 C31.023000717163086,66.76100158691406 54.430999755859375,50.88199996948242 63.15999984741211,24.197999954223633 C63.15999984741211,24.197999954223633 34.32099914550781,24.197999954223633 34.32099914550781,24.197999954223633 C27.791000366210938,36.20100021362305 16.124000549316406,42.54100036621094 0.5210000276565552,42.54100036621094 C-19.93000030517578,42.54100036621094 -35.18199920654297,29.15999984741211 -38.332000732421875,8.454999923706055 C-38.332000732421875,8.454999923706055 -38.516998291015625,7.146999835968018 -38.516998291015625,7.146999835968018 C-38.516998291015625,7.146999835968018 66.63500213623047,7.146999835968018 66.63500213623047,7.146999835968018 C66.63500213623047,7.146999835968018 66.63500213623047,-1.909000039100647 66.63500213623047,-1.909000039100647 C66.63500213623047,-20.628999710083008 60.564998626708984,-35.78099822998047 48.112998962402344,-48.2400016784668 C35.82699966430664,-60.525001525878906 19.902000427246094,-66.76100158691406 0.7710000276565552,-66.76100158691406z M-37.2130012512207,-13.253999710083008 C-37.2130012512207,-13.253999710083008 -36.750999450683594,-14.734000205993652 -36.750999450683594,-14.734000205993652 C-31.291000366210938,-32.14400100708008 -17.270000457763672,-42.53799819946289 0.7710000276565552,-42.53799819946289 C18.849000930786133,-42.53799819946289 32.595001220703125,-32.13199996948242 37.527000427246094,-14.701000213623047 C37.527000427246094,-14.701000213623047 37.93299865722656,-13.253999710083008 37.93299865722656,-13.253999710083008 C37.93299865722656,-13.253999710083008 -37.2130012512207,-13.253999710083008 -37.2130012512207,-13.253999710083008z"></path></g></g></g><g style="display: block;" transform="matrix(1,0,0,1,-1173.5,-564.5)" opacity="1"><g opacity="1" transform="matrix(1,0,0,1,1402.260009765625,797.260009765625)"><path fill="rgb(0,44,93)" fill-opacity="1" d=" M0.0010000000474974513,-68.98500061035156 C0.0010000000474974513,-68.98500061035156 -21.81100082397461,-68.98500061035156 -21.81100082397461,-68.98500061035156 C-23.187999725341797,-59.6870002746582 -26.858999252319336,-51.14500045776367 -32.21200180053711,-43.92300033569336 C-32.21200180053711,-43.92300033569336 -22.239999771118164,-33.952999114990234 -22.239999771118164,-33.952999114990234 C-16.020000457763672,-37.9900016784668 -8.614999771118164,-40.358001708984375 -0.6460000276565552,-40.358001708984375 C21.308000564575195,-40.358001708984375 39.10599899291992,-22.55900001525879 39.10599899291992,-0.6039999723434448 C39.10599899291992,21.35099983215332 21.308000564575195,39.14899826049805 -0.6460000276565552,39.14899826049805 C-22.601999282836914,39.14899826049805 -40.39899826049805,21.35099983215332 -40.39899826049805,-0.6039999723434448 C-40.39899826049805,-8.598999977111816 -38.018001556396484,-16.027999877929688 -33.95600128173828,-22.261999130249023 C-33.95600128173828,-22.261999130249023 -43.91400146484375,-32.21900177001953 -43.91400146484375,-32.21900177001953 C-51.13800048828125,-26.863000869750977 -59.68299865722656,-23.18899917602539 -68.98400115966797,-21.812000274658203 C-68.98400115966797,-21.812000274658203 -68.98400115966797,0 -68.98400115966797,0 C-68.98400115966797,38.0989990234375 -38.0989990234375,68.98500061035156 0.0010000000474974513,68.98500061035156 C38.099998474121094,68.98500061035156 68.98400115966797,38.0989990234375 68.98400115966797,0 C68.98400115966797,0 68.98400115966797,-0.0010000000474974513 68.98400115966797,-0.0010000000474974513 C68.98400115966797,-38.0989990234375 38.099998474121094,-68.98500061035156 0.0010000000474974513,-68.98500061035156z"></path></g><g opacity="1" transform="matrix(1,0,0,1,1247.739990234375,797.260009765625)"><path fill="rgb(0,44,93)" fill-opacity="1" d=" M33.9630012512207,-22.25200080871582 C38.020999908447266,-16.020999908447266 40.39899826049805,-8.595000267028809 40.39899826049805,-0.6039999723434448 C40.39899826049805,21.351999282836914 22.601999282836914,39.14799880981445 0.6470000147819519,39.14799880981445 C-21.308000564575195,39.14799880981445 -39.10599899291992,21.351999282836914 -39.10599899291992,-0.6039999723434448 C-39.10599899291992,-22.55900001525879 -21.308000564575195,-40.356998443603516 0.6470000147819519,-40.356998443603516 C8.619000434875488,-40.356998443603516 16.027999877929688,-37.986000061035156 22.250999450683594,-33.94499969482422 C22.250999450683594,-33.94499969482422 32.21900177001953,-43.91400146484375 32.21900177001953,-43.91400146484375 C26.863000869750977,-51.13800048828125 23.187999725341797,-59.68299865722656 21.812000274658203,-68.98400115966797 C21.812000274658203,-68.98400115966797 0,-68.98400115966797 0,-68.98400115966797 C-38.099998474121094,-68.98400115966797 -68.98400115966797,-38.0989990234375 -68.98400115966797,0 C-68.98400115966797,0 -68.98400115966797,0 -68.98400115966797,0 C-68.98400115966797,38.0989990234375 -38.099998474121094,68.98400115966797 0,68.98400115966797 C38.097999572753906,68.98400115966797 68.98400115966797,38.0989990234375 68.98400115966797,0 C68.98400115966797,0 68.98400115966797,-21.812000274658203 68.98400115966797,-21.812000274658203 C59.6870002746582,-23.187999725341797 51.14400100708008,-26.860000610351562 43.92300033569336,-32.2130012512207 C43.92300033569336,-32.2130012512207 33.9630012512207,-22.25200080871582 33.9630012512207,-22.25200080871582z"></path></g><g opacity="1" transform="matrix(1,0,0,1,1247.739990234375,642.739990234375)"><path fill="rgb(0,44,93)" fill-opacity="1" d=" M22.25200080871582,33.94599914550781 C16.02899932861328,37.98699951171875 8.619999885559082,40.358001708984375 0.6480000019073486,40.358001708984375 C-21.30699920654297,40.358001708984375 -39.10499954223633,22.559999465942383 -39.10499954223633,0.6050000190734863 C-39.10499954223633,-21.350000381469727 -21.30699920654297,-39.14799880981445 0.6480000019073486,-39.14799880981445 C22.60300064086914,-39.14799880981445 40.400001525878906,-21.350000381469727 40.400001525878906,0.6050000190734863 C40.400001525878906,8.595000267028809 38.020999908447266,16.020000457763672 33.9630012512207,22.25200080871582 C33.9630012512207,22.25200080871582 43.92399978637695,32.2130012512207 43.92399978637695,32.2130012512207 C51.14500045776367,26.860000610351562 59.6870002746582,23.187999725341797 68.98400115966797,21.812000274658203 C68.98400115966797,21.812000274658203 68.98400115966797,0 68.98400115966797,0 C68.98400115966797,-38.0989990234375 38.097999572753906,-68.98500061035156 0,-68.98500061035156 C-38.099998474121094,-68.98500061035156 -68.98400115966797,-38.0989990234375 -68.98400115966797,0 C-68.98400115966797,38.0989990234375 -38.099998474121094,68.98500061035156 0,68.98500061035156 C0,68.98500061035156 21.812000274658203,68.98500061035156 21.812000274658203,68.98500061035156 C23.187999725341797,59.68299865722656 26.863000869750977,51.137001037597656 32.21900177001953,43.915000915527344 C32.21900177001953,43.915000915527344 22.25200080871582,33.94599914550781 22.25200080871582,33.94599914550781z"></path></g><g opacity="1" transform="matrix(1,0,0,1,1402.260009765625,642.739990234375)"><path fill="rgb(0,44,93)" fill-opacity="1" d=" M0.0010000000474974513,-68.98400115966797 C-38.0989990234375,-68.98400115966797 -68.98400115966797,-38.097999572753906 -68.98400115966797,0.0010000000474974513 C-68.98400115966797,0.0010000000474974513 -68.98400115966797,21.812000274658203 -68.98400115966797,21.812000274658203 C-59.68299865722656,23.187999725341797 -51.13800048828125,26.86400032043457 -43.91400146484375,32.220001220703125 C-43.91400146484375,32.220001220703125 -33.95600128173828,22.26300048828125 -33.95600128173828,22.26300048828125 C-38.018001556396484,16.02899932861328 -40.39899826049805,8.600000381469727 -40.39899826049805,0.6050000190734863 C-40.39899826049805,-21.350000381469727 -22.601999282836914,-39.14799880981445 -0.6460000276565552,-39.14799880981445 C21.308000564575195,-39.14799880981445 39.10599899291992,-21.350000381469727 39.10599899291992,0.6050000190734863 C39.10599899291992,22.559999465942383 21.308000564575195,40.358001708984375 -0.6460000276565552,40.358001708984375 C-8.614999771118164,40.358001708984375 -16.020000457763672,37.9900016784668 -22.239999771118164,33.95399856567383 C-22.239999771118164,33.95399856567383 -32.21200180053711,43.92399978637695 -32.21200180053711,43.92399978637695 C-26.858999252319336,51.14500045776367 -23.187999725341797,59.6870002746582 -21.81100082397461,68.98400115966797 C-21.81100082397461,68.98400115966797 0.0010000000474974513,68.98400115966797 0.0010000000474974513,68.98400115966797 C38.099998474121094,68.98400115966797 68.98400115966797,38.099998474121094 68.98400115966797,0.0010000000474974513 C68.98400115966797,-38.097999572753906 38.099998474121094,-68.98400115966797 0.0010000000474974513,-68.98400115966797z"></path></g></g><g style="display: none;" transform="matrix(1,0,0,1,-485.5,-564.5)" opacity="0.01141338848431559"><g opacity="1" transform="matrix(1,0,0,1,1281.073974609375,675.9299926757812)"><path stroke-linecap="butt" stroke-linejoin="miter" fill-opacity="0" stroke-miterlimit="10" stroke="rgb(0,44,93)" stroke-opacity="1" stroke-width="17" d=" M-22.805999755859375,-22.80699920654297 C-22.805999755859375,-22.80699920654297 22.805999755859375,22.80699920654297 22.805999755859375,22.80699920654297"></path></g></g><g style="display: none;" transform="matrix(1,0,0,1,-485.50006103515625,-564.5)" opacity="0.01141338848431559"><g opacity="1" transform="matrix(1,0,0,1,1368.925048828125,675.9299926757812)"><path stroke-linecap="butt" stroke-linejoin="miter" fill-opacity="0" stroke-miterlimit="10" stroke="rgb(0,44,93)" stroke-opacity="1" stroke-width="17" d=" M22.805999755859375,-22.80699920654297 C22.805999755859375,-22.80699920654297 -22.805999755859375,22.80699920654297 -22.805999755859375,22.80699920654297"></path></g></g><g style="display: none;" transform="matrix(1,0,0,1,-485.5,-564.5)" opacity="0.01141338848431559"><g opacity="1" transform="matrix(1,0,0,1,1281.073974609375,763.3099975585938)"><path stroke-linecap="butt" stroke-linejoin="miter" fill-opacity="0" stroke-miterlimit="10" stroke="rgb(0,44,93)" stroke-opacity="1" stroke-width="17" d=" M-22.805999755859375,22.805999755859375 C-22.805999755859375,22.805999755859375 22.805999755859375,-22.805999755859375 22.805999755859375,-22.805999755859375"></path></g></g><g style="display: none;" transform="matrix(1,0,0,1,-485.50006103515625,-564.5)" opacity="0.01141338848431559"><g opacity="1" transform="matrix(1,0,0,1,1368.925048828125,763.3099975585938)"><path stroke-linecap="butt" stroke-linejoin="miter" fill-opacity="0" stroke-miterlimit="10" stroke="rgb(0,44,93)" stroke-opacity="1" stroke-width="17" d=" M22.805999755859375,22.805999755859375 C22.805999755859375,22.805999755859375 -22.805999755859375,-22.805999755859375 -22.805999755859375,-22.805999755859375"></path></g></g><g transform="matrix(1,0,0,1,-485.49993896484375,-564.5)" opacity="0.01141338848431559" style="display: none;"><g opacity="1" transform="matrix(1,0,0,1,1248.407958984375,643.4119873046875)"><path fill="rgb(0,44,93)" fill-opacity="1" d=" M39.733001708984375,0 C39.733001708984375,21.94300079345703 21.94300079345703,39.731998443603516 0,39.731998443603516 C-21.944000244140625,39.731998443603516 -39.733001708984375,21.94300079345703 -39.733001708984375,0 C-39.733001708984375,-21.944000244140625 -21.944000244140625,-39.731998443603516 0,-39.731998443603516 C21.94300079345703,-39.731998443603516 39.733001708984375,-21.944000244140625 39.733001708984375,0z"></path></g></g><g transform="matrix(1,0,0,1,-485.5,-564.5)" opacity="0.01141338848431559" style="display: none;"><g opacity="1" transform="matrix(1,0,0,1,1401.5479736328125,643.4119873046875)"><path fill="rgb(0,44,93)" fill-opacity="1" d=" M39.733001708984375,0 C39.733001708984375,21.94300079345703 21.94300079345703,39.731998443603516 0,39.731998443603516 C-21.944000244140625,39.731998443603516 -39.733001708984375,21.94300079345703 -39.733001708984375,0 C-39.733001708984375,-21.944000244140625 -21.944000244140625,-39.731998443603516 0,-39.731998443603516 C21.94300079345703,-39.731998443603516 39.733001708984375,-21.944000244140625 39.733001708984375,0z"></path></g></g><g transform="matrix(1,0,0,1,-485.49993896484375,-564.5)" opacity="0.01141338848431559" style="display: none;"><g opacity="1" transform="matrix(1,0,0,1,1248.407958984375,796.6909790039062)"><path fill="rgb(0,44,93)" fill-opacity="1" d=" M39.733001708984375,0 C39.733001708984375,21.94300079345703 21.94300079345703,39.731998443603516 0,39.731998443603516 C-21.944000244140625,39.731998443603516 -39.733001708984375,21.94300079345703 -39.733001708984375,0 C-39.733001708984375,-21.944000244140625 -21.944000244140625,-39.731998443603516 0,-39.731998443603516 C21.94300079345703,-39.731998443603516 39.733001708984375,-21.944000244140625 39.733001708984375,0z"></path></g></g><g transform="matrix(1,0,0,1,-485.5,-564.5)" opacity="0.01141338848431559" style="display: none;"><g opacity="1" transform="matrix(1,0,0,1,1401.5479736328125,796.6909790039062)"><path fill="rgb(0,44,93)" fill-opacity="1" d=" M39.733001708984375,0 C39.733001708984375,21.94300079345703 21.94300079345703,39.731998443603516 0,39.731998443603516 C-21.944000244140625,39.731998443603516 -39.733001708984375,21.94300079345703 -39.733001708984375,0 C-39.733001708984375,-21.944000244140625 -21.944000244140625,-39.731998443603516 0,-39.731998443603516 C21.94300079345703,-39.731998443603516 39.733001708984375,-21.944000244140625 39.733001708984375,0z"></path></g></g><g transform="matrix(1,0,0,1,-485.5,-564.5)" opacity="0.01141338848431559" style="display: none;"><g opacity="1" transform="matrix(1,0,0,1,1325,720)"><path fill="rgb(0,44,93)" fill-opacity="1" d=" M56.04999923706055,0 C56.04999923706055,30.954999923706055 30.954999923706055,56.04999923706055 0,56.04999923706055 C-30.954999923706055,56.04999923706055 -56.04999923706055,30.954999923706055 -56.04999923706055,0 C-56.04999923706055,-30.95599937438965 -30.954999923706055,-56.04999923706055 0,-56.04999923706055 C30.954999923706055,-56.04999923706055 56.04999923706055,-30.95599937438965 56.04999923706055,0z"></path></g></g></g></svg>